<svg width="25" height="25" viewBox="0 0 25 25" fill="none" xmlns="http://www.w3.org/2000/svg">
<path fill-rule="evenodd" clip-rule="evenodd" d="M8.58337 4.25L19.8334 4.25C20.0323 4.25 20.2231 4.32902 20.3637 4.46967C20.5044 4.61032 20.5834 4.80109 20.5834 5V16.25C20.5834 16.6642 20.2476 17 19.8334 17C19.4192 17 19.0834 16.6642 19.0834 16.25V6.81066L5.3637 20.5303C5.07081 20.8232 4.59594 20.8232 4.30304 20.5303C4.01015 20.2374 4.01015 19.7626 4.30304 19.4697L18.0227 5.75L8.58337 5.75C8.16916 5.75 7.83337 5.41421 7.83337 5C7.83337 4.58579 8.16916 4.25 8.58337 4.25Z" fill="#141414"/>
</svg>
