<svg width="41" height="40" viewBox="0 0 41 40" fill="none" xmlns="http://www.w3.org/2000/svg">
<path d="M20.3334 30C20.3334 35.5228 24.8105 40 30.3334 40C35.8562 40 40.3334 35.5228 40.3334 30C40.3334 24.4772 35.8562 20 30.3334 20H20.3334V30Z" fill="#FFD11A"/>
<path d="M20.3334 10C20.3334 4.47715 15.8562 0 10.3334 0C4.81053 0 0.333374 4.47715 0.333374 10C0.333374 15.5228 4.81053 20 10.3334 20H20.3334V10Z" fill="#FFD11A"/>
<path fill-rule="evenodd" clip-rule="evenodd" d="M30.3334 0C24.8105 0 20.3334 4.47715 20.3334 10V20H30.3334C35.8562 20 40.3334 15.5228 40.3334 10C40.3334 4.47715 35.8562 0 30.3334 0ZM35.3334 10C35.3334 12.7614 33.0948 15 30.3334 15C27.5719 15 25.3334 12.7614 25.3334 10C25.3334 7.23858 27.572 5 30.3334 5C33.0948 5 35.3334 7.23858 35.3334 10Z" fill="#404040"/>
<path fill-rule="evenodd" clip-rule="evenodd" d="M10.3334 40C15.8562 40 20.3334 35.5228 20.3334 30V20H10.3334C4.81053 20 0.333374 24.4772 0.333374 30C0.333374 35.5228 4.81053 40 10.3334 40ZM15.3334 30C15.3334 32.7614 13.0948 35 10.3334 35C7.57195 35 5.33337 32.7614 5.33337 30C5.33337 27.2386 7.57195 25 10.3334 25C13.0948 25 15.3334 27.2386 15.3334 30Z" fill="#404040"/>
</svg>
